# xmcd
#
# Track frame offsets: 
#        150
#        15818
#        30655
#        47708
#        61133
#        77794
#        95468
#        112286
#        131362
#        144756
#        158449
#        172064
#        186746
#        201542
#        213866
#        224848
#        254866
#        267609
#
# Disc length: 3729 seconds
#
# Revision: 0
# Processed by: cddbd v1.5.2PL0 Copyright (c) Steve Scherf et al.
# Submitted via: ExactAudioCopyFreeDBPlugin 1.0
#
DISCID=130e8f12
DTITLE=Various Artist - Digital DJ Series 6 Volume 1 CD2
DYEAR=2002
DGENRE=Mixed
TTITLE0=Dido - Thank You
TTITLE1=Shaggy - Angel
TTITLE2=Mary J Blige - Family Affair
TTITLE3=Jennifer Lopez - It's Gonna Be Alright
TTITLE4=Will Smith - Black Suits Comin
TTITLE5=Nelly - Ride Wit Me
TTITLE6=Britney Spears - Boys (The Co-ed Remix) (Featuring Pharrell Wi
TTITLE6=lliams)
TTITLE7=Christina Aguilera, Lil' Kim, Mya and Pink - Lady Marmalade
TTITLE8=LeAnn Rimes - Can't Fight The Moonlight
TTITLE9=The Lighthouse Family - Happy
TTITLE10=Robin S - Show Me Love
TTITLE11=Bobby Brown - Two Can Play That Game
TTITLE12=M-People - One Night In Heaven
TTITLE13=The Tamperer Featuring Maya - Feel It
TTITLE14=Roger Sanchez - Another Chance
TTITLE15=Armand Van Helden - You Don't Know Me
TTITLE16=Jean-Jacques Smoothie - 2 People
TTITLE17=Daniel Bedingfield - Gotta Get Thru This
EXTD=
EXTT0=
EXTT1=
EXTT2=
EXTT3=
EXTT4=
EXTT5=
EXTT6=
EXTT7=
EXTT8=
EXTT9=
EXTT10=
EXTT11=
EXTT12=
EXTT13=
EXTT14=
EXTT15=
EXTT16=
EXTT17=
PLAYORDER=
